<?xml version="1.0" encoding="UTF-8" standalone="no"?><!DOCTYPE svg PUBLIC "-//W3C//DTD SVG 1.1//EN" "http://www.w3.org/Graphics/SVG/1.1/DTD/svg11.dtd"><svg width="100%" height="100%" viewBox="0 0 541 541" version="1.1" xmlns="http://www.w3.org/2000/svg" xmlns:xlink="http://www.w3.org/1999/xlink" xml:space="preserve" xmlns:serif="http://www.serif.com/" style="fill-rule:evenodd;clip-rule:evenodd;stroke-linejoin:round;stroke-miterlimit:2;"><rect id="LogoOnWhite" x="0.323" y="0.399" width="540" height="540" style="fill:#fff;"/><g><path d="M408.842,282.345l-33.577,0.086c-1.246,0.003 -2.441,-0.568 -3.323,-1.589c-0.882,-1.021 -1.378,-2.406 -1.378,-3.851l0,-71.168c0,-10.172 -1.862,-30.195 -17.839,-47.571c-16.789,-18.26 -48.516,-33.296 -107.864,-32.85c-47.356,0.355 -75.118,13.424 -91.301,29.33c-23.105,22.708 -21.768,50.746 -21.768,50.746c0.006,0.114 0.009,0.23 0.009,0.345l0,25.718l27.1,-0.075c1.661,-0.004 3.256,0.758 4.432,2.119c1.176,1.361 1.837,3.208 1.837,5.135l-0,78.899c-0,11.121 1.863,33.029 18.131,52.027c17.148,20.028 49.6,36.396 110.22,35.908c48.319,-0.39 76.679,-14.63 93.191,-32.058c23.502,-24.804 22.141,-55.448 22.141,-55.448c-0.007,-0.143 -0.011,-0.286 -0.011,-0.429l0,-35.274Z"/><path d="M48.896,282.397l-12.312,-0c-2.591,-0 -4.691,-2.436 -4.691,-5.44l0,-213.55c0,-2.999 2.093,-5.433 4.678,-5.441l433.315,-1.332c1.247,-0.004 2.443,0.568 3.325,1.589c0.882,1.02 1.378,2.406 1.378,3.851l0,169.358l27.909,0c3.454,0 6.254,3.248 6.254,7.254l-0,236.747c-0,3.998 -2.789,7.242 -6.236,7.254l-447.349,1.477c-1.661,0.005 -3.257,-0.757 -4.433,-2.118c-1.177,-1.36 -1.838,-3.209 -1.838,-5.136l-0,-194.513Zm10.658,-25.533c9.986,4.173 17.002,14.034 17.002,25.533l0,174.035l404.535,-1.335l0,-196.004l-6.502,-0c-15.276,-0 -27.66,-12.384 -27.66,-27.661l-0,-147.066l-387.375,1.19l0,171.308Z"/></g></svg>